
<svg width="831" height="72" viewBox="0 0 831 72" fill="none" xmlns="http://www.w3.org/2000/svg">
<path d="M21.7628 1.18182L36.081 50.4091H36.6264L50.9446 1.18182H72.3537L49.3082 71H23.3991L0.353693 1.18182H21.7628ZM98.0327 1.18182V71H79.0781V1.18182H98.0327ZM144.652 23C144.47 20.7273 143.618 18.9545 142.095 17.6818C140.595 16.4091 138.311 15.7727 135.243 15.7727C133.288 15.7727 131.686 16.0114 130.436 16.4886C129.209 16.9432 128.3 17.5682 127.709 18.3636C127.118 19.1591 126.811 20.0682 126.788 21.0909C126.743 21.9318 126.891 22.6932 127.232 23.375C127.595 24.0341 128.163 24.6364 128.936 25.1818C129.709 25.7045 130.697 26.1818 131.902 26.6136C133.107 27.0455 134.538 27.4318 136.197 27.7727L141.925 29C145.788 29.8182 149.095 30.8977 151.845 32.2386C154.595 33.5795 156.845 35.1591 158.595 36.9773C160.345 38.7727 161.629 40.7955 162.447 43.0455C163.288 45.2955 163.72 47.75 163.743 50.4091C163.72 55 162.572 58.8864 160.3 62.0682C158.027 65.25 154.777 67.6705 150.55 69.3295C146.345 70.9886 141.288 71.8182 135.379 71.8182C129.311 71.8182 124.016 70.9205 119.493 69.125C114.993 67.3295 111.493 64.5682 108.993 60.8409C106.516 57.0909 105.266 52.2955 105.243 46.4545H123.243C123.357 48.5909 123.891 50.3864 124.845 51.8409C125.8 53.2955 127.141 54.3977 128.868 55.1477C130.618 55.8977 132.697 56.2727 135.107 56.2727C137.129 56.2727 138.822 56.0227 140.186 55.5227C141.55 55.0227 142.584 54.3295 143.288 53.4432C143.993 52.5568 144.357 51.5455 144.379 50.4091C144.357 49.3409 144.004 48.4091 143.322 47.6136C142.663 46.7955 141.572 46.0682 140.05 45.4318C138.527 44.7727 136.47 44.1591 133.879 43.5909L126.925 42.0909C120.743 40.75 115.868 38.5114 112.3 35.375C108.754 32.2159 106.993 27.9091 107.016 22.4545C106.993 18.0227 108.175 14.1477 110.561 10.8295C112.97 7.48863 116.3 4.88636 120.55 3.02272C124.822 1.15909 129.72 0.22727 135.243 0.22727C140.879 0.22727 145.754 1.17045 149.868 3.05682C153.982 4.94318 157.152 7.60227 159.379 11.0341C161.629 14.4432 162.766 18.4318 162.788 23H144.652ZM189.908 1.18182V71H170.953V1.18182H189.908ZM266.527 36.0909C266.527 43.8636 265.016 50.4205 261.993 55.7614C258.97 61.0795 254.891 65.1136 249.754 67.8636C244.618 70.5909 238.891 71.9545 232.572 71.9545C226.209 71.9545 220.459 70.5795 215.322 67.8295C210.209 65.0568 206.141 61.0114 203.118 55.6932C200.118 50.3523 198.618 43.8182 198.618 36.0909C198.618 28.3182 200.118 21.7727 203.118 16.4545C206.141 11.1136 210.209 7.07954 215.322 4.35227C220.459 1.60227 226.209 0.22727 232.572 0.22727C238.891 0.22727 244.618 1.60227 249.754 4.35227C254.891 7.07954 258.97 11.1136 261.993 16.4545C265.016 21.7727 266.527 28.3182 266.527 36.0909ZM247.027 36.0909C247.027 31.9091 246.47 28.3864 245.357 25.5227C244.266 22.6364 242.641 20.4545 240.482 18.9773C238.345 17.4773 235.709 16.7273 232.572 16.7273C229.436 16.7273 226.788 17.4773 224.629 18.9773C222.493 20.4545 220.868 22.6364 219.754 25.5227C218.663 28.3864 218.118 31.9091 218.118 36.0909C218.118 40.2727 218.663 43.8068 219.754 46.6932C220.868 49.5568 222.493 51.7386 224.629 53.2386C226.788 54.7159 229.436 55.4545 232.572 55.4545C235.709 55.4545 238.345 54.7159 240.482 53.2386C242.641 51.7386 244.266 49.5568 245.357 46.6932C246.47 43.8068 247.027 40.2727 247.027 36.0909ZM335.706 1.18182V71H319.888L294.661 34.3182H294.251V71H275.297V1.18182H291.388L316.206 37.7273H316.751V1.18182H335.706ZM384.933 61.4545V11H400.206V61.4545H384.933ZM367.342 43.8636V28.5909H417.797V43.8636H367.342ZM514.666 27.3636H495.439C495.303 25.7727 494.939 24.3295 494.348 23.0341C493.78 21.7386 492.984 20.625 491.962 19.6932C490.962 18.7386 489.746 18.0114 488.314 17.5114C486.882 16.9886 485.257 16.7273 483.439 16.7273C480.257 16.7273 477.564 17.5 475.359 19.0455C473.178 20.5909 471.518 22.8068 470.382 25.6932C469.268 28.5795 468.712 32.0455 468.712 36.0909C468.712 40.3636 469.28 43.9432 470.416 46.8295C471.575 49.6932 473.246 51.8523 475.428 53.3068C477.609 54.7386 480.234 55.4545 483.303 55.4545C485.053 55.4545 486.621 55.2386 488.007 54.8068C489.393 54.3523 490.598 53.7045 491.621 52.8636C492.643 52.0227 493.473 51.0114 494.109 49.8295C494.768 48.625 495.212 47.2727 495.439 45.7727L514.666 45.9091C514.439 48.8636 513.609 51.875 512.178 54.9432C510.746 57.9886 508.712 60.8068 506.075 63.3977C503.462 65.9659 500.223 68.0341 496.359 69.6023C492.496 71.1705 488.007 71.9545 482.893 71.9545C476.484 71.9545 470.734 70.5795 465.643 67.8295C460.575 65.0795 456.564 61.0341 453.609 55.6932C450.678 50.3523 449.212 43.8182 449.212 36.0909C449.212 28.3182 450.712 21.7727 453.712 16.4545C456.712 11.1136 460.757 7.07954 465.848 4.35227C470.939 1.60227 476.621 0.22727 482.893 0.22727C487.303 0.22727 491.359 0.829542 495.064 2.03409C498.768 3.23863 502.018 5 504.814 7.31818C507.609 9.61363 509.859 12.4432 511.564 15.8068C513.268 19.1705 514.303 23.0227 514.666 27.3636ZM523.266 71V1.18182H553.402C558.584 1.18182 563.118 2.125 567.004 4.01136C570.891 5.89773 573.913 8.61364 576.072 12.1591C578.232 15.7045 579.311 19.9545 579.311 24.9091C579.311 29.9091 578.197 34.125 575.97 37.5568C573.766 40.9886 570.663 43.5795 566.663 45.3295C562.686 47.0795 558.038 47.9545 552.72 47.9545H534.72V33.2273H548.902C551.129 33.2273 553.027 32.9545 554.595 32.4091C556.186 31.8409 557.402 30.9432 558.243 29.7159C559.107 28.4886 559.538 26.8864 559.538 24.9091C559.538 22.9091 559.107 21.2841 558.243 20.0341C557.402 18.7614 556.186 17.8295 554.595 17.2386C553.027 16.625 551.129 16.3182 548.902 16.3182H542.22V71H523.266ZM564.175 38.9545L581.629 71H561.038L543.993 38.9545H564.175ZM587.391 71V1.18182H637.709V16.4545H606.345V28.4545H635.118V43.7273H606.345V55.7273H637.572V71H587.391ZM665.246 71H644.791L667.837 1.18182H693.746L716.791 71H696.337L681.064 20.4091H680.518L665.246 71ZM661.428 43.4545H699.882V57.6364H661.428V43.4545ZM712.794 16.4545V1.18182H773.476V16.4545H752.476V71H733.794V16.4545H712.794ZM780.609 71V1.18182H830.928V16.4545H799.564V28.4545H828.337V43.7273H799.564V55.7273H830.791V71H780.609Z" fill="black"/>
</svg>

